<?xml version="1.0" standalone="no"?>
<!DOCTYPE svg PUBLIC "-//W3C//DTD SVG 20010904//EN"
 "http://www.w3.org/TR/2001/REC-SVG-20010904/DTD/svg10.dtd">
<svg version="1.0" xmlns="http://www.w3.org/2000/svg"
 width="200.000000pt" height="200.000000pt" viewBox="0 0 200.000000 200.000000"
 preserveAspectRatio="xMidYMid meet">
<metadata>
Created by potrace 1.16, written by Peter Selinger 2001-2019
</metadata>
<g transform="translate(0.000000,200.000000) scale(0.100000,-0.100000)"
fill="#000000" stroke="none">
<path d="M0 1781 l0 -218 181 -182 c100 -99 188 -181 195 -181 8 0 14 -6 14
-12 0 -9 3 -10 8 -2 9 14 43 14 61 0 11 -8 13 -8 7 2 -4 7 -1 12 8 12 18 0 17
-11 17 187 0 142 1 152 19 158 45 14 70 15 70 3 0 -9 4 -8 11 2 9 13 10 13 6
0 -2 -8 -12 -17 -22 -18 -9 -2 -15 0 -12 5 4 5 0 10 -8 10 -10 0 -12 -4 -5
-12 5 -7 7 -15 3 -19 -4 -4 5 -3 20 3 17 7 27 7 27 1 0 -6 4 -10 9 -10 5 0 8
11 5 25 -2 14 -1 25 3 25 5 0 19 3 32 7 17 4 22 3 17 -5 -4 -7 -1 -12 9 -12 9
0 13 5 10 10 -3 6 0 11 7 11 7 1 24 3 38 5 14 1 40 4 58 5 18 1 29 5 24 8 -5
3 -8 16 -7 28 1 12 -10 35 -25 51 -14 16 -24 34 -23 39 2 6 -4 10 -14 9 -12 0
-17 5 -17 17 1 10 -3 16 -9 14 -15 -5 -45 25 -40 40 3 6 -4 10 -14 10 -12 -1
-17 4 -17 16 1 10 -3 16 -9 14 -15 -5 -45 25 -40 40 3 6 -4 10 -14 10 -12 -1
-17 4 -17 16 1 10 -3 16 -9 14 -15 -5 -45 25 -40 40 3 6 -4 10 -14 10 -12 -1
-17 4 -16 16 0 12 -4 16 -13 13 -8 -3 -14 -1 -14 4 0 6 -88 10 -230 10 l-230
0 0 -219z"/>
<path d="M1006 1571 c-3 -5 1 -14 10 -21 10 -9 11 -15 4 -20 -7 -5 -11 -163
-10 -524 0 -316 -3 -515 -9 -512 -5 4 -8 -2 -6 -11 2 -10 4 -18 5 -18 1 0 3
-8 5 -18 2 -9 -2 -17 -8 -17 -7 0 1 -7 17 -15 36 -19 42 -19 25 2 -13 15 -11
16 10 10 17 -4 21 -3 13 5 -8 8 -4 16 13 29 13 11 27 19 32 19 4 0 1 -5 -7
-11 -12 -8 -12 -10 -1 -7 8 2 15 12 17 23 1 10 7 21 11 24 5 3 26 19 46 35 32
24 41 27 61 18 17 -8 23 -7 23 3 0 7 -6 11 -14 8 -15 -6 -18 23 -3 32 6 4 17
2 24 -4 7 -6 16 -8 19 -4 4 3 7 1 7 -4 0 -6 -6 -14 -12 -16 -10 -4 -10 -6 0
-6 7 -1 15 6 18 14 4 8 10 12 15 9 14 -8 11 6 -5 21 -12 12 -15 12 -20 -1 -3
-8 -11 -12 -17 -9 -13 9 18 45 34 39 7 -2 23 12 36 31 12 19 36 40 51 47 16 7
27 15 24 19 -2 4 3 12 11 19 13 11 15 62 15 338 0 292 2 327 17 344 16 18 16
18 -1 12 -15 -6 -17 -3 -12 13 5 17 1 20 -30 21 -35 1 -68 27 -58 44 3 4 -2 5
-12 1 -15 -5 -15 -7 0 -15 17 -9 13 -28 -5 -28 -6 0 -8 3 -6 8 3 4 -20 7 -51
8 -33 0 -57 5 -60 12 -2 7 -8 12 -13 12 -6 0 -7 -4 -4 -10 3 -5 -1 -10 -9 -10
-9 0 -16 3 -16 8 0 4 -24 8 -53 8 -28 1 -59 4 -68 6 -24 6 -50 29 -43 39 3 5
3 9 0 9 -3 0 -7 -4 -10 -9z"/>
<path d="M1514 782 c-12 -19 -13 -26 -4 -32 9 -5 9 -9 1 -14 -6 -4 -16 -4 -23
0 -7 5 -9 2 -5 -9 4 -11 -4 -20 -29 -32 -19 -9 -34 -18 -34 -21 0 -3 6 -2 13
2 6 3 -1 -5 -18 -20 -29 -24 -51 -34 -41 -18 2 4 -4 9 -15 9 -10 1 -19 -3 -19
-8 0 -6 4 -8 9 -4 12 7 24 -12 16 -25 -5 -8 -11 -7 -21 1 -12 9 -13 9 -9 -2 3
-9 -8 -27 -25 -44 -16 -16 -30 -26 -30 -22 0 3 -14 -7 -31 -24 -21 -21 -34
-27 -42 -20 -9 7 -11 -9 -9 -66 4 -72 3 -74 -16 -64 -15 8 -21 7 -25 -3 -4 -9
3 -12 21 -11 28 2 65 -22 57 -35 -3 -4 3 -14 12 -21 14 -12 16 -12 8 0 -5 10
-4 12 3 7 7 -4 12 -14 12 -22 0 -8 11 -19 25 -24 14 -5 25 -12 25 -15 0 -4 -6
-3 -12 1 -7 4 -4 -2 6 -14 21 -24 32 -29 20 -10 -4 7 -3 8 4 4 7 -4 12 -14 12
-22 0 -8 11 -19 25 -24 14 -5 25 -12 25 -15 0 -4 -6 -3 -12 1 -7 4 -4 -2 6
-14 21 -24 32 -29 20 -10 -4 7 -3 8 4 4 7 -4 12 -14 12 -22 0 -8 11 -19 25
-24 14 -5 25 -12 25 -15 0 -4 -6 -3 -12 1 -7 4 -4 -2 6 -14 20 -23 32 -30 21
-12 -3 6 -4 10 0 10 3 0 10 -11 15 -25 5 -14 17 -25 25 -25 9 0 14 -4 10 -9
-3 -6 85 -10 225 -11 l230 -1 0 218 0 218 -169 169 c-94 94 -167 174 -164 180
4 5 10 0 14 -12 5 -12 14 -22 21 -22 9 0 9 3 0 12 -15 15 -16 31 0 22 6 -4 8
-3 4 4 -3 6 -14 9 -24 7 -9 -1 -48 0 -85 4 -64 7 -68 6 -83 -17z"/>
</g>
</svg>
